<svg xmlns="http://www.w3.org/2000/svg" viewBox="0 0 800 600" font-family="Helvetica, Arial, sans-serif">
  <defs>
    <marker id="ah" markerWidth="9" markerHeight="9" refX="7" refY="3" orient="auto" markerUnits="strokeWidth">
      <path d="M0,0 L7,3 L0,6 Z" fill="#333"/>
    </marker>
  </defs>
  <rect width="800" height="600" fill="#ffffff"/>
  <text x="400" y="42" text-anchor="middle" font-size="22" font-weight="bold" fill="#1e1e1e">Arquitectura de despliegue — Plataforma SOC</text>

  <!-- zones -->
  <rect x="40" y="200" width="700" height="355" rx="12" fill="#dbe4ff" fill-opacity="0.4" stroke="#4a9eed" stroke-width="1"/>
  <text x="56" y="223" font-size="16" fill="#2563eb">Docker Compose</text>
  <rect x="300" y="250" width="205" height="250" rx="12" fill="#e5dbff" fill-opacity="0.5" stroke="#8b5cf6" stroke-width="1"/>
  <text x="315" y="273" font-size="16" fill="#6b21a8">API .NET 9</text>

  <!-- nodes -->
  <rect x="50" y="110" width="160" height="60" rx="10" fill="#a5d8ff" stroke="#2563eb" stroke-width="2"/>
  <text x="130" y="145" text-anchor="middle" font-size="15" fill="#1e1e1e">Navegador (usuario)</text>

  <rect x="545" y="110" width="190" height="60" rx="10" fill="#ffd8a8" stroke="#f59e0b" stroke-width="2"/>
  <text x="640" y="145" text-anchor="middle" font-size="14" fill="#1e1e1e">Google Earth Engine (externo)</text>

  <rect x="70" y="285" width="170" height="90" rx="10" fill="#a5d8ff" stroke="#2563eb" stroke-width="2"/>
  <text x="155" y="322" text-anchor="middle" font-size="15" fill="#1e1e1e">Frontend</text>
  <text x="155" y="344" text-anchor="middle" font-size="14" fill="#1e1e1e">React + TS + Vite</text>

  <rect x="320" y="290" width="165" height="50" rx="8" fill="#d0bfff" stroke="#8b5cf6" stroke-width="2"/>
  <text x="402" y="320" text-anchor="middle" font-size="16" fill="#1e1e1e">Controlador</text>
  <rect x="320" y="365" width="165" height="50" rx="8" fill="#d0bfff" stroke="#8b5cf6" stroke-width="2"/>
  <text x="402" y="395" text-anchor="middle" font-size="16" fill="#1e1e1e">Servicio (dominio)</text>
  <rect x="320" y="440" width="165" height="50" rx="8" fill="#d0bfff" stroke="#8b5cf6" stroke-width="2"/>
  <text x="402" y="470" text-anchor="middle" font-size="14" fill="#1e1e1e">Repositorio / EF Core</text>

  <rect x="560" y="290" width="160" height="75" rx="10" fill="#c3fae8" stroke="#06b6d4" stroke-width="2"/>
  <text x="640" y="333" text-anchor="middle" font-size="14" fill="#1e1e1e">PostgreSQL + PostGIS</text>
  <rect x="560" y="405" width="160" height="75" rx="10" fill="#c3fae8" stroke="#06b6d4" stroke-width="2"/>
  <text x="640" y="448" text-anchor="middle" font-size="16" fill="#1e1e1e">Neo4j (grafo)</text>

  <!-- arrows -->
  <line x1="135" y1="170" x2="150" y2="282" stroke="#333" stroke-width="2" marker-end="url(#ah)"/>
  <text x="118" y="232" font-size="13" fill="#555">HTTP</text>

  <line x1="240" y1="320" x2="317" y2="316" stroke="#333" stroke-width="2" marker-end="url(#ah)"/>
  <text x="262" y="308" font-size="13" fill="#555">REST</text>

  <line x1="402" y1="340" x2="402" y2="362" stroke="#8b5cf6" stroke-width="2" marker-end="url(#ah)"/>
  <line x1="402" y1="415" x2="402" y2="437" stroke="#8b5cf6" stroke-width="2" marker-end="url(#ah)"/>

  <line x1="486" y1="452" x2="558" y2="336" stroke="#06b6d4" stroke-width="2" marker-end="url(#ah)"/>
  <text x="512" y="388" font-size="13" fill="#0e7490">EF Core</text>
  <line x1="486" y1="468" x2="558" y2="445" stroke="#06b6d4" stroke-width="2" marker-end="url(#ah)"/>
  <text x="500" y="485" font-size="13" fill="#0e7490">driver</text>

  <line x1="472" y1="250" x2="632" y2="174" stroke="#f59e0b" stroke-width="2" stroke-dasharray="6 5" marker-end="url(#ah)"/>
  <text x="548" y="205" font-size="13" fill="#b45309">puntero</text>
</svg>
